<?xml version="1.0" encoding="UTF-8"?>
<!DOCTYPE svg PUBLIC "-//W3C//DTD SVG 1.1//EN" "http://www.w3.org/Graphics/SVG/1.1/DTD/svg11.dtd">
<svg xmlns="http://www.w3.org/2000/svg" version="1.1" width="3300px" height="862px" style="shape-rendering:geometricPrecision; text-rendering:geometricPrecision; image-rendering:optimizeQuality; fill-rule:evenodd; clip-rule:evenodd" xmlns:xlink="http://www.w3.org/1999/xlink">
<g><path style="opacity:0.995" fill="#006fbf" d="M 602.5,90.5 C 869.834,90.3333 1137.17,90.5 1404.5,91C 1380.47,114.034 1356.13,136.7 1331.5,159C 1111.17,159.5 890.834,159.667 670.5,159.5C 670.667,364.167 670.5,568.834 670,773.5C 647.967,794.534 625.634,815.201 603,835.5C 602.5,587.167 602.333,338.834 602.5,90.5 Z"/></g>
<g><path style="opacity:0.985" fill="#006fbf" d="M 1623.5,90.5 C 1938.5,90.5 2253.5,90.5 2568.5,90.5C 2568.5,153.5 2568.5,216.5 2568.5,279.5C 2253.5,279.5 1938.5,279.5 1623.5,279.5C 1623.5,216.5 1623.5,153.5 1623.5,90.5 Z M 1669.5,136.5 C 1728.83,136.5 1788.17,136.5 1847.5,136.5C 1847.5,168.833 1847.5,201.167 1847.5,233.5C 1788.17,233.5 1728.83,233.5 1669.5,233.5C 1669.5,201.167 1669.5,168.833 1669.5,136.5 Z M 1894.5,136.5 C 1953.5,136.5 2012.5,136.5 2071.5,136.5C 2071.5,168.833 2071.5,201.167 2071.5,233.5C 2012.5,233.5 1953.5,233.5 1894.5,233.5C 1894.5,201.167 1894.5,168.833 1894.5,136.5 Z M 2120.5,136.5 C 2179.83,136.5 2239.17,136.5 2298.5,136.5C 2298.5,168.833 2298.5,201.167 2298.5,233.5C 2239.17,233.5 2179.83,233.5 2120.5,233.5C 2120.5,201.167 2120.5,168.833 2120.5,136.5 Z M 2345.5,136.5 C 2404.5,136.5 2463.5,136.5 2522.5,136.5C 2522.5,168.833 2522.5,201.167 2522.5,233.5C 2463.5,233.5 2404.5,233.5 2345.5,233.5C 2345.5,201.167 2345.5,168.833 2345.5,136.5 Z"/></g>
<g><path style="opacity:0.986" fill="#006fbf" d="M 764.5,235.5 C 931.84,236.016 1099.17,237.183 1266.5,239C 1242.17,263.333 1217.83,287.667 1193.5,312C 1074.84,311.589 956.17,310.923 837.5,310C 812.581,285.582 788.247,260.749 764.5,235.5 Z"/></g>
<g><path style="opacity:0.991" fill="#006fbf" d="M 1695.5,315.5 C 1724.68,313.549 1744.18,326.215 1754,353.5C 1759.32,379.916 1750.82,400.416 1728.5,415C 1715.29,421.206 1701.79,422.039 1688,417.5C 1682.24,425.348 1676.24,433.015 1670,440.5C 1669.5,466.498 1669.33,492.498 1669.5,518.5C 1716.83,518.5 1764.17,518.5 1811.5,518.5C 1811.83,488.789 1811.49,459.123 1810.5,429.5C 1820.98,415.856 1831.64,402.356 1842.5,389C 1833.64,363.783 1839.3,342.45 1859.5,325C 1879.83,312.333 1900.17,312.333 1920.5,325C 1941.11,342.925 1946.61,364.758 1937,390.5C 1923.54,415.144 1903.04,424.478 1875.5,418.5C 1869.77,424.943 1864.27,431.609 1859,438.5C 1858.17,530.207 1858.34,621.874 1859.5,713.5C 1848.04,730.931 1836.7,748.431 1825.5,766C 1837.17,793.969 1831.17,817.303 1807.5,836C 1781.42,849.523 1758.58,845.356 1739,823.5C 1725,801.871 1725,780.205 1739,758.5C 1752.51,742.331 1769.67,735.831 1790.5,739C 1797.33,728.833 1804.17,718.667 1811,708.5C 1811.5,689.503 1811.67,670.503 1811.5,651.5C 1764.17,651.5 1716.83,651.5 1669.5,651.5C 1669.33,674.169 1669.5,696.836 1670,719.5C 1670.5,720 1671,720.5 1671.5,721C 1658.5,737.333 1645.5,753.667 1632.5,770C 1642.15,799.381 1633.82,822.047 1607.5,838C 1584.56,847.056 1564.4,842.89 1547,825.5C 1532.27,805.6 1530.6,784.6 1542,762.5C 1556.44,742.037 1575.94,734.537 1600.5,740C 1607.69,731.774 1614.53,723.274 1621,714.5C 1621.33,619.833 1621.67,525.167 1622,430.5C 1634.07,416.264 1645.57,401.597 1656.5,386.5C 1648.66,358.711 1656.66,336.877 1680.5,321C 1685.45,318.692 1690.45,316.859 1695.5,315.5 Z M 1699.5,345.5 C 1718.22,345.395 1726.72,354.728 1725,373.5C 1718.53,390.323 1707.36,394.489 1691.5,386C 1682.39,376.059 1681.22,365.226 1688,353.5C 1691.48,350.161 1695.32,347.494 1699.5,345.5 Z M 1887.5,345.5 C 1901.74,346.241 1909.74,353.741 1911.5,368C 1908.04,387.562 1897.04,393.895 1878.5,387C 1865.18,374.291 1865.18,361.625 1878.5,349C 1881.57,347.704 1884.57,346.538 1887.5,345.5 Z M 1669.5,566.5 C 1716.83,566.5 1764.17,566.5 1811.5,566.5C 1811.5,578.833 1811.5,591.167 1811.5,603.5C 1764.17,603.5 1716.83,603.5 1669.5,603.5C 1669.5,591.167 1669.5,578.833 1669.5,566.5 Z M 1580.5,768.5 C 1598.75,768.248 1607.25,777.248 1606,795.5C 1600.1,811.692 1589.27,816.192 1573.5,809C 1561.92,797.247 1561.59,785.247 1572.5,773C 1575.1,771.205 1577.77,769.705 1580.5,768.5 Z M 1776.5,768.5 C 1788.19,768.256 1796.02,773.59 1800,784.5C 1802.98,798.504 1797.81,808.004 1784.5,813C 1770.69,814.199 1762.19,808.033 1759,794.5C 1757.93,781.087 1763.76,772.42 1776.5,768.5 Z"/></g>
<g><path style="opacity:0.981" fill="#000000" d="M 2216.5,425.5 C 2283.05,424.05 2322.38,456.05 2334.5,521.5C 2316.22,526.705 2297.88,531.705 2279.5,536.5C 2276.67,515.987 2266.67,500.154 2249.5,489C 2213.24,477.377 2187.74,489.21 2173,524.5C 2168.61,537.484 2165.95,550.817 2165,564.5C 2164.13,584.526 2164.47,604.526 2166,624.5C 2167.55,642.143 2172.88,658.476 2182,673.5C 2201.44,698.055 2224.94,702.888 2252.5,688C 2261.66,680.174 2268.49,670.674 2273,659.5C 2276.29,650.346 2278.96,641.013 2281,631.5C 2281.67,630.833 2282.33,630.167 2283,629.5C 2300.15,636.329 2317.32,643.162 2334.5,650C 2330.59,676.378 2320.42,700.211 2304,721.5C 2278.5,748.223 2247.34,759.057 2210.5,754C 2174.42,747.717 2147.59,728.551 2130,696.5C 2116.1,670.236 2108.43,642.236 2107,612.5C 2103.51,570.103 2110.18,529.437 2127,490.5C 2145.52,453.133 2175.35,431.467 2216.5,425.5 Z"/></g>
<g><path style="opacity:0.982" fill="#000000" d="M 2454.5,425.5 C 2477.4,423.653 2499.4,427.153 2520.5,436C 2547.22,450.564 2562.72,473.064 2567,503.5C 2568.16,510.453 2568.66,517.453 2568.5,524.5C 2550.18,525.851 2531.85,526.685 2513.5,527C 2508.21,489.434 2486.87,475.101 2449.5,484C 2428.86,490.248 2422.02,503.414 2429,523.5C 2431.13,526.63 2433.63,529.463 2436.5,532C 2443.11,536.136 2450.11,539.469 2457.5,542C 2477.77,547.869 2497.77,554.536 2517.5,562C 2547.16,573.986 2565.66,595.486 2573,626.5C 2578.49,652.104 2576.49,677.104 2567,701.5C 2551.07,734.059 2524.91,751.559 2488.5,754C 2419.91,761.65 2378.75,731.816 2365,664.5C 2363.31,657.525 2362.81,650.525 2363.5,643.5C 2381.07,640.604 2398.73,638.77 2416.5,638C 2418.71,652.964 2423.88,666.797 2432,679.5C 2446.55,695.267 2464.38,700.767 2485.5,696C 2511.52,689.449 2522.68,672.949 2519,646.5C 2515.12,635.626 2507.62,628.459 2496.5,625C 2475.5,618 2454.5,611 2433.5,604C 2393.77,588.096 2373.1,558.596 2371.5,515.5C 2374.33,462.348 2401.99,432.348 2454.5,425.5 Z"/></g>
<g><path style="opacity:0.98" fill="#000000" d="M 732.5,430.5 C 796.834,430.333 861.168,430.5 925.5,431C 926,431.5 926.5,432 927,432.5C 927.667,450.5 927.667,468.5 927,486.5C 926.5,487 926,487.5 925.5,488C 879.501,488.5 833.501,488.667 787.5,488.5C 787.5,510.167 787.5,531.833 787.5,553.5C 830.168,553.333 872.835,553.5 915.5,554C 916,554.5 916.5,555 917,555.5C 917.825,573.74 917.659,591.907 916.5,610C 873.501,610.5 830.501,610.667 787.5,610.5C 787.5,637.833 787.5,665.167 787.5,692.5C 835.5,692.5 883.5,692.5 931.5,692.5C 931.5,711.5 931.5,730.5 931.5,749.5C 864.833,749.5 798.167,749.5 731.5,749.5C 731.169,643.096 731.502,536.763 732.5,430.5 Z"/></g>
<g><path style="opacity:0.98" fill="#000000" d="M 1095.5,430.5 C 1112.74,430.175 1129.91,430.508 1147,431.5C 1147.5,537.499 1147.67,643.499 1147.5,749.5C 1130.83,749.5 1114.17,749.5 1097.5,749.5C 1097.67,740.161 1097.5,730.827 1097,721.5C 1074.97,753.512 1046.14,762.012 1010.5,747C 983.988,728.845 968.488,703.678 964,671.5C 959.4,645.169 959.4,618.835 964,592.5C 967.827,564.998 980.327,542.498 1001.5,525C 1023.89,510.38 1047.23,508.713 1071.5,520C 1079.91,525.079 1087.08,531.579 1093,539.5C 1093.33,503.833 1093.67,468.167 1094,432.5C 1094.72,431.956 1095.22,431.289 1095.5,430.5 Z M 1048.5,562.5 C 1064.26,560.961 1076.09,566.961 1084,580.5C 1088.07,588.379 1090.74,596.712 1092,605.5C 1095.19,623.841 1095.19,642.174 1092,660.5C 1090.19,674.953 1084.02,687.12 1073.5,697C 1055.33,707.418 1039.83,704.251 1027,687.5C 1019.53,674.162 1015.86,659.829 1016,644.5C 1014.37,626.174 1016.03,608.174 1021,590.5C 1025.71,576.624 1034.88,567.291 1048.5,562.5 Z"/></g>
<g><path style="opacity:0.98" fill="#000000" d="M 1251.5,512.5 C 1279.73,510.199 1301.56,520.866 1317,544.5C 1317.5,535.506 1317.67,526.506 1317.5,517.5C 1334.08,517.175 1350.58,517.508 1367,518.5C 1367.67,594.167 1367.67,669.833 1367,745.5C 1367.17,767.307 1362.51,787.973 1353,807.5C 1337.09,830.706 1314.93,842.206 1286.5,842C 1265.9,843.618 1245.9,840.951 1226.5,834C 1196.14,818.122 1183.98,793.622 1190,760.5C 1208.46,763.519 1226.96,766.352 1245.5,769C 1246.42,769.374 1247.25,769.874 1248,770.5C 1248.27,781.257 1253.43,788.09 1263.5,791C 1274.29,792.722 1284.95,792.056 1295.5,789C 1304.89,785.42 1310.39,778.587 1312,768.5C 1313.57,751.873 1313.91,735.206 1313,718.5C 1290.81,749.839 1262.31,757.339 1227.5,741C 1213.48,731.31 1202.65,718.81 1195,703.5C 1185.18,680.716 1180.34,656.883 1180.5,632C 1180.54,610.677 1183.7,589.844 1190,569.5C 1200.85,539.807 1221.35,520.807 1251.5,512.5 Z M 1268.5,562.5 C 1287.47,561.626 1300.63,569.959 1308,587.5C 1314.07,606.378 1316.07,625.711 1314,645.5C 1313.15,663.764 1305.98,678.93 1292.5,691C 1271.67,701.723 1255.5,696.89 1244,676.5C 1234.75,650.36 1233.09,623.694 1239,596.5C 1242.72,579.629 1252.55,568.296 1268.5,562.5 Z"/></g>
<g><path style="opacity:0.979" fill="#000000" d="M 1475.5,512.5 C 1515.48,508.896 1544.31,524.896 1562,560.5C 1574.73,590.31 1579.23,621.143 1575.5,653C 1534.83,653.5 1494.17,653.667 1453.5,653.5C 1453.38,670.649 1459.05,685.482 1470.5,698C 1478.68,704.712 1488.01,707.045 1498.5,705C 1505.7,703.142 1511.2,698.975 1515,692.5C 1517.93,686.478 1520.43,680.312 1522.5,674C 1539.87,676.706 1557.2,679.873 1574.5,683.5C 1562.15,735.181 1529.48,758.681 1476.5,754C 1449.51,749.989 1429.34,736.156 1416,712.5C 1402.26,684.422 1396.6,654.755 1399,623.5C 1399.83,593.34 1408.83,566.006 1426,541.5C 1438.91,525.472 1455.41,515.805 1475.5,512.5 Z M 1483.5,562.5 C 1503.19,561.999 1515.69,571.333 1521,590.5C 1522.82,597.735 1523.99,605.068 1524.5,612.5C 1501.17,612.5 1477.83,612.5 1454.5,612.5C 1453.62,595.619 1458.96,581.119 1470.5,569C 1474.66,566.255 1478.99,564.088 1483.5,562.5 Z"/></g>
<g><path style="opacity:0.979" fill="#000000" d="M 1976.5,512.5 C 2017.3,509.193 2046.47,525.86 2064,562.5C 2075.54,591.424 2080.04,621.424 2077.5,652.5C 2036.54,653.494 1995.54,653.828 1954.5,653.5C 1954.38,670.651 1960.05,685.485 1971.5,698C 1983.23,706.719 1995.57,707.719 2008.5,701C 2016.1,693.474 2021.1,684.474 2023.5,674C 2040.87,676.706 2058.2,679.873 2075.5,683.5C 2062.19,738.276 2027.52,761.443 1971.5,753C 1944.09,746.378 1924.59,730.211 1913,704.5C 1902.55,679.204 1898.21,652.871 1900,625.5C 1900.36,594.088 1909.69,565.755 1928,540.5C 1940.75,525.05 1956.91,515.716 1976.5,512.5 Z M 1984.5,562.5 C 2004.19,561.999 2016.69,571.333 2022,590.5C 2023.98,597.706 2025.15,605.039 2025.5,612.5C 2002.17,612.5 1978.83,612.5 1955.5,612.5C 1954.62,595.617 1959.96,581.117 1971.5,569C 1975.66,566.255 1979.99,564.088 1984.5,562.5 Z"/></g>
</svg>
